<svg width="24" height="25" viewBox="0 0 24 25" fill="none" xmlns="http://www.w3.org/2000/svg">
<path d="M2.65625 0C1.95177 0 1.27614 0.279854 0.777998 0.777998C0.279854 1.27614 0 1.95177 0 2.65625C0 3.36073 0.279854 4.03636 0.777998 4.5345C1.27614 5.03265 1.95177 5.3125 2.65625 5.3125C3.36073 5.3125 4.03636 5.03265 4.5345 4.5345C5.03265 4.03636 5.3125 3.36073 5.3125 2.65625C5.3125 1.95177 5.03265 1.27614 4.5345 0.777998C4.03636 0.279854 3.36073 0 2.65625 0ZM0.15625 7.5C0.11481 7.5 0.075067 7.51646 0.0457644 7.54576C0.0164619 7.57507 0 7.61481 0 7.65625V23.9062C0 23.9925 0.07 24.0625 0.15625 24.0625H5.15625C5.19769 24.0625 5.23743 24.046 5.26674 24.0167C5.29604 23.9874 5.3125 23.9477 5.3125 23.9062V7.65625C5.3125 7.61481 5.29604 7.57507 5.26674 7.54576C5.23743 7.51646 5.19769 7.5 5.15625 7.5H0.15625ZM8.28125 7.5C8.23981 7.5 8.20007 7.51646 8.17076 7.54576C8.14146 7.57507 8.125 7.61481 8.125 7.65625V23.9062C8.125 23.9925 8.195 24.0625 8.28125 24.0625H13.2812C13.3227 24.0625 13.3624 24.046 13.3917 24.0167C13.421 23.9874 13.4375 23.9477 13.4375 23.9062V15.1562C13.4375 14.5346 13.6844 13.9385 14.124 13.499C14.5635 13.0594 15.1596 12.8125 15.7812 12.8125C16.4029 12.8125 16.999 13.0594 17.4385 13.499C17.8781 13.9385 18.125 14.5346 18.125 15.1562V23.9062C18.125 23.9925 18.195 24.0625 18.2812 24.0625H23.2812C23.3227 24.0625 23.3624 24.046 23.3917 24.0167C23.421 23.9874 23.4375 23.9477 23.4375 23.9062V13.1313C23.4375 10.0975 20.8 7.725 17.7813 7.99875C16.8473 8.08443 15.9325 8.31555 15.07 8.68375L13.4375 9.38375V7.65625C13.4375 7.61481 13.421 7.57507 13.3917 7.54576C13.3624 7.51646 13.3227 7.5 13.2812 7.5H8.28125Z" fill="white"/>
</svg>
