<svg width="34" height="34" viewBox="0 0 34 34" fill="none" xmlns="http://www.w3.org/2000/svg">
<path d="M33.7532 30.0032L24.0894 20.3394C25.876 17.6242 26.5915 14.3427 26.0975 11.1303C25.6036 7.91778 23.9352 5.00285 21.4154 2.94983C18.8957 0.896817 15.7038 -0.148245 12.4578 0.0169825C9.21176 0.182211 6.1425 1.54597 3.84424 3.84424C1.54597 6.1425 0.182211 9.21176 0.0169825 12.4578C-0.148245 15.7038 0.896817 18.8957 2.94983 21.4154C5.00285 23.9352 7.91778 25.6036 11.1303 26.0975C14.3427 26.5915 17.6242 25.876 20.3394 24.0894L30.0032 33.7532L33.7532 30.0032ZM3.75316 13.1282C3.75316 7.95879 7.95879 3.75316 13.1282 3.75316C18.2975 3.75316 22.5032 7.95879 22.5032 13.1282C22.5032 18.2975 18.2975 22.5032 13.1282 22.5032C7.95879 22.5032 3.75316 18.2975 3.75316 13.1282Z" fill="black"/>
</svg>
