<svg width="29" height="24" viewBox="0 0 29 24" fill="none" xmlns="http://www.w3.org/2000/svg">
<path d="M28.8826 3.25C27.8238 3.73125 26.6826 4.0475 25.5001 4.19875C26.7101 3.47 27.6451 2.315 28.0851 0.92625C26.9438 1.61375 25.6788 2.095 24.3451 2.37C23.2588 1.1875 21.7326 0.5 20.0001 0.5C16.7688 0.5 14.1288 3.14 14.1288 6.39875C14.1288 6.86625 14.1838 7.32 14.2801 7.74625C9.38505 7.49875 5.0263 5.1475 2.12505 1.58625C1.6163 2.4525 1.32755 3.47 1.32755 4.5425C1.32755 6.59125 2.3588 8.40625 3.9538 9.4375C2.97755 9.4375 2.07005 9.1625 1.27255 8.75V8.79125C1.27255 11.6512 3.30755 14.0437 6.00255 14.58C5.13746 14.8178 4.22885 14.8507 3.3488 14.6763C3.72226 15.8484 4.45367 16.8741 5.4402 17.609C6.42674 18.344 7.61879 18.7513 8.8488 18.7738C6.76385 20.4244 4.17932 21.3167 1.52005 21.3037C1.05255 21.3037 0.585054 21.2762 0.117554 21.2212C2.73005 22.8987 5.83755 23.875 9.16505 23.875C20.0001 23.875 25.9538 14.8825 25.9538 7.08625C25.9538 6.825 25.9538 6.5775 25.9401 6.31625C27.0951 5.49125 28.0851 4.44625 28.8826 3.25Z" fill="white"/>
</svg>
